# xmcd
#
# Track frame offsets:
#	150
#	11387
#	24112
#	38290
#	54301
#	77290
#	92235
#	106746
#	119614
#	132496
#	144802
#	162847
#	174387
#
# Disc length: 2406 seconds
#
# Revision: 0
# Processed by: cddbd v1.5.2PL0 Copyright (c) Steve Scherf et al.
# Submitted via: dBpowerAMP V4.0
#
DISCID=8909640d
DTITLE=Various Artist - Best Of Blues
DYEAR=2005
DGENRE=Blues
TTITLE0=Chu Berry and Cab Calloway/Bugle Blues
TTITLE1=Chu Berry and Cab Calloway/Bye Bye Blues
TTITLE2=Cab Calloway/Beale Street Mama
TTITLE3=Cab Calloway/Minnie The Moocher
TTITLE4=B.B. King/Everyday I Have The Blues
TTITLE5=Count Basie/Two For The Blues
TTITLE6=Count Basie/Stormy Monday Blues
TTITLE7=Count Basie/Bleep Blop Blues
TTITLE8=Louis Armstrong/St.Louis Blues
TTITLE9=Louis Armstrong/Basin Street Blues
TTITLE10=Louis Armstrong/Back O' Town Blues
TTITLE11=Louis Armstrong/Dipper Mouth Blues
TTITLE12=The All Stars/I Gotta Right To Sing The Blues
EXTD=Sold as a double cd with bonus DVD titled "Hi-De-Ho",\nstarring Cab Calloway.Running time 72mins.B&W.\nThe blurb reads as follows -\n'Band leader Cab Calloway is tiring of his sexy girlfriend \nMinnie,who in turn is jealous of Cab's manager Nettie.
EXTD=\nWhen Nettie gets Cab a job at the Brass Hat Club,\nMinnie retaliates for his imagined infedelity by setting\ngangster Boss Mason,owner of a rival club,against\nhim.Will she regret her actions before it's too late?\n(This plot resolves halfway thr
EXTD=ough the film;the rest is a\nseries of 'soundies' featuring the Calloway band's\ninimitable jive).' - Direct scene access to the following;\n1.Hep Cat - 2.No Laughing Matter - 3.Hey Now - \n4.The Peters Sisters - 5.St.James Infirmary Blues - \n6.I 
EXTD=Got A Gal Named Betty..................\nregards,\nsam
EXTT0=
EXTT1=
EXTT2=
EXTT3=
EXTT4=
EXTT5=
EXTT6=
EXTT7=
EXTT8=
EXTT9=
EXTT10=
EXTT11=
EXTT12=
PLAYORDER=
